# xmcd CD database file
#
# Track frame offsets:
#	150
#	20765
#	41945
#	62592
#	84250
#	104427
#	125754
#	147040
#	168290
#	190105
#
# Disc length: 2787 seconds
#
# Revision: 3
# Processed by: cddbd v1.5.2PL0 Copyright (c) Steve Scherf et al.
# Submitted via: NeoAudio 9.9.9
#
DISCID=860ae10a
DTITLE=Salomé - Como Loca, Amame una vez más
DYEAR=1997
DGENRE=Salsa
TTITLE0=Y es por eso
TTITLE1=Ámame una vez más
TTITLE2=Como loca
TTITLE3=Como yo me entrego
TTITLE4=Mala teoría
TTITLE5=Como una ola
TTITLE6=El precio a pagar
TTITLE7=Lo siento mi amor
TTITLE8=Quiéreme siempre
TTITLE9=Desvelada
EXTD=YEAR: 1997
EXTT0=
EXTT1=
EXTT2=
EXTT3=
EXTT4=
EXTT5=
EXTT6=
EXTT7=
EXTT8=
EXTT9=
PLAYORDER=
